<svg width="197" height="50" viewBox="0 0 197 50" fill="none" xmlns="http://www.w3.org/2000/svg">
<path d="M42.8762 22.3389V0.258754H47.3238V17.9229H54.7364V22.3389H42.8762ZM56.5344 22.3389V0.258754H68.016V4.67479H60.9819V9.15391H65.051V13.6015H60.9819V17.8914H68.016V22.3389H56.5344ZM70.2241 22.3389L74.2931 3.98084H74.7663L76.6589 12.8129L74.577 22.3389H70.2241ZM76.9428 19.6578L77.889 15.3048H79.0246L75.681 0.258754H80.0655L85.2701 22.3389H80.8541L80.2232 19.6578H76.9428ZM87.1943 22.3389V6.81972H87.4466L91.6418 13.5699V22.3389H87.1943ZM87.1943 3.16072V0.258754H90.8217L101.231 17.0397V22.3389H99.1176L87.1943 3.16072ZM96.7834 6.63046V0.258754H101.231V13.3807H100.979L96.7834 6.63046ZM103.881 22.3389V0.258754H108.328V22.3389H103.881ZM110.031 22.3389V17.8914C110.494 17.8914 110.925 17.7021 111.325 17.3236C111.619 16.9871 111.777 16.5876 111.798 16.1249V6.47275C111.798 6.05217 111.619 5.64211 111.262 5.24256C110.925 4.90611 110.515 4.72736 110.031 4.70633V0.258754C112.366 0.258754 114.132 1.29968 115.331 3.38152C115.941 4.45399 116.245 5.4844 116.245 6.47275V16.1249C116.245 18.5222 115.184 20.3097 113.06 21.4873C112.008 22.055 110.999 22.3389 110.031 22.3389ZM118.769 22.3389V0.258754H123.216V22.3389H118.769ZM124.92 13.3176V9.37471H125.33C126.676 9.37471 127.538 8.82796 127.916 7.73447C128.001 7.4611 128.043 7.17721 128.043 6.88281C128.043 5.76828 127.517 5.02176 126.465 4.64325C126.129 4.51707 125.75 4.45399 125.33 4.45399H124.92V0.258754H125.614C128.369 0.300812 130.303 1.27865 131.418 3.19226C131.943 4.0965 132.206 5.11639 132.206 6.25194C132.185 8.4179 131.47 10.0792 130.061 11.2358C131.113 11.9087 131.786 13.1283 132.08 14.8948C132.101 15.105 132.122 15.3048 132.143 15.4941L132.679 22.3389H128.579L128.106 16.7243C127.937 15.042 127.454 14.001 126.655 13.6015C126.276 13.4333 125.814 13.3386 125.267 13.3176H124.92ZM134.572 16.188V5.81034C134.572 4.69582 135.045 3.56027 135.991 2.40369C137.253 0.889616 138.851 0.122067 140.786 0.101039V4.54862C139.924 4.56965 139.356 5.05331 139.083 5.9996C139.041 6.1468 139.02 6.25194 139.02 6.31503V16.188C139.02 17.0502 139.493 17.639 140.439 17.9544C140.586 17.9965 140.691 18.0175 140.754 18.0175V22.4966C139.556 22.4966 138.357 22.0656 137.159 21.2034C135.455 19.9417 134.593 18.2699 134.572 16.188ZM142.489 22.4966V18.0175C142.826 18.0175 143.204 17.8388 143.625 17.4813C144.024 17.1238 144.235 16.6927 144.256 16.188V6.31503C144.256 5.93651 144.077 5.53697 143.72 5.11639C143.383 4.7589 142.973 4.56965 142.489 4.54862V0.101039C144.613 0.101039 146.317 1.01579 147.599 2.84529C148.335 3.89673 148.703 4.88508 148.703 5.81034V16.188C148.703 18.5222 147.662 20.3097 145.581 21.5504C144.487 22.1812 143.457 22.4966 142.489 22.4966ZM4.12772 44.4971V47.4621C4.12772 48.0404 4.16189 48.4058 4.23023 48.5582C4.30383 48.7054 4.43001 48.8237 4.60875 48.9131C4.79275 49.0025 5.12658 49.0472 5.61024 49.0472V49.3389H0.176944V49.0472C0.67112 49.0472 1.00495 49.0025 1.17844 48.9131C1.35718 48.8185 1.48073 48.6976 1.54907 48.5504C1.62267 48.4031 1.65947 48.0404 1.65947 47.4621V40.5226C1.65947 39.9443 1.62267 39.5816 1.54907 39.4344C1.48073 39.2819 1.35718 39.161 1.17844 39.0716C0.999694 38.9823 0.665862 38.9376 0.176944 38.9376V38.6458H4.83744C6.37254 38.6458 7.47392 38.9192 8.14158 39.4659C8.80924 40.0127 9.14307 40.6961 9.14307 41.5162C9.14307 42.2102 8.92753 42.8042 8.49644 43.2984C8.06535 43.7926 7.47129 44.1291 6.71425 44.3078C6.20431 44.434 5.34213 44.4971 4.12772 44.4971ZM4.12772 39.2609V43.882C4.30121 43.8925 4.43263 43.8977 4.52201 43.8977C5.16338 43.8977 5.65756 43.7085 6.00453 43.33C6.35151 42.9462 6.52499 42.3548 6.52499 41.5557C6.52499 40.7618 6.35151 40.1809 6.00453 39.8129C5.65756 39.4449 5.13973 39.2609 4.45104 39.2609H4.12772ZM15.5542 49.0472V49.3389H9.96319V49.0472H10.3181C10.6282 49.0472 10.8779 48.992 11.0672 48.8816C11.2039 48.808 11.309 48.6818 11.3826 48.503C11.4405 48.3769 11.4694 48.0457 11.4694 47.5094V40.4753C11.4694 39.9286 11.4405 39.5869 11.3826 39.4502C11.3248 39.3135 11.2065 39.1952 11.0278 39.0953C10.8543 38.9902 10.6177 38.9376 10.3181 38.9376H9.96319V38.6458H15.5542V38.9376H15.1993C14.8892 38.9376 14.6395 38.9928 14.4502 39.1032C14.3135 39.1768 14.2057 39.303 14.1269 39.4817C14.0691 39.6079 14.0401 39.9391 14.0401 40.4753V47.5094C14.0401 48.0562 14.0691 48.3979 14.1269 48.5346C14.19 48.6713 14.3083 48.7922 14.4817 48.8973C14.6605 48.9972 14.8997 49.0472 15.1993 49.0472H15.5542ZM19.9545 38.6458L25.2301 45.2778V40.6803C25.2301 40.039 25.1381 39.6053 24.9541 39.3792C24.7017 39.0743 24.2785 38.9271 23.6844 38.9376V38.6458H27.2173V38.9376C26.7652 38.9954 26.4602 39.0716 26.3025 39.1663C26.1501 39.2556 26.0291 39.4055 25.9398 39.6158C25.8557 39.8208 25.8136 40.1757 25.8136 40.6803V49.5834H25.5455L18.3142 40.6803V47.4779C18.3142 48.093 18.4535 48.5083 18.7322 48.7238C19.0161 48.9394 19.3394 49.0472 19.7021 49.0472H19.9545V49.3389H16.1614V49.0472C16.7502 49.0419 17.1603 48.921 17.3916 48.6844C17.6229 48.4478 17.7386 48.0457 17.7386 47.4779V39.9312L17.5099 39.6473C17.2838 39.3634 17.084 39.1768 16.9106 39.0874C16.7371 38.998 16.4874 38.9481 16.1614 38.9376V38.6458H19.9545ZM37.7921 38.6458V41.5399H37.5082C37.34 40.8722 37.1534 40.3938 36.9483 40.1047C36.7433 39.8103 36.462 39.5763 36.1045 39.4028C35.9048 39.3082 35.5552 39.2609 35.0557 39.2609H34.2593V47.5094C34.2593 48.0562 34.2882 48.3979 34.346 48.5346C34.4091 48.6713 34.5274 48.7922 34.7009 48.8973C34.8796 48.9972 35.1214 49.0472 35.4264 49.0472H35.7812V49.3389H30.1823V49.0472H30.5372C30.8474 49.0472 31.0971 48.992 31.2863 48.8816C31.423 48.808 31.5308 48.6818 31.6097 48.503C31.6675 48.3769 31.6964 48.0457 31.6964 47.5094V39.2609H30.9236C30.2034 39.2609 29.6803 39.4134 29.3543 39.7183C28.8969 40.1441 28.6078 40.7513 28.4869 41.5399H28.1872V38.6458H37.7921ZM38.7542 38.6458H44.2742V38.9376H43.9982C43.5829 38.9376 43.2964 38.9823 43.1387 39.0716C42.9862 39.1558 42.8758 39.274 42.8075 39.4265C42.7444 39.579 42.7128 39.9601 42.7128 40.5699V45.8061C42.7128 46.7629 42.7838 47.3964 42.9257 47.7066C43.0729 48.0167 43.3121 48.2743 43.6433 48.4794C43.9745 48.6844 44.3925 48.7869 44.8972 48.7869C45.4755 48.7869 45.967 48.6581 46.3718 48.4005C46.7819 48.1377 47.0868 47.7775 47.2866 47.3202C47.4916 46.8628 47.5941 46.0663 47.5941 44.9308V40.5699C47.5941 40.0915 47.5442 39.7498 47.4443 39.5448C47.3444 39.3398 47.2182 39.1978 47.0658 39.119C46.8292 38.998 46.4954 38.9376 46.0643 38.9376V38.6458H49.7627V38.9376H49.5419C49.2422 38.9376 48.9925 38.998 48.7928 39.119C48.593 39.2399 48.4484 39.4213 48.359 39.6631C48.2907 39.8313 48.2565 40.1336 48.2565 40.5699V44.6311C48.2565 45.8876 48.1724 46.7945 48.0042 47.3517C47.8412 47.909 47.439 48.4215 46.7977 48.8894C46.1563 49.3573 45.281 49.5913 44.1717 49.5913C43.2464 49.5913 42.5314 49.4677 42.0268 49.2206C41.3381 48.8842 40.8518 48.4531 40.5679 47.9274C40.284 47.4017 40.1421 46.6946 40.1421 45.8061V40.5699C40.1421 39.9549 40.1079 39.5737 40.0395 39.4265C39.9712 39.274 39.8529 39.1531 39.6847 39.0638C39.5165 38.9744 39.2063 38.9323 38.7542 38.9376V38.6458ZM54.3365 44.4655V47.4621C54.3365 48.0404 54.3706 48.4058 54.439 48.5582C54.5126 48.7054 54.6387 48.8237 54.8175 48.9131C54.9962 49.0025 55.3301 49.0472 55.819 49.0472V49.3389H50.3463V49.0472C50.8404 49.0472 51.1743 49.0025 51.3477 48.9131C51.5265 48.8185 51.65 48.6976 51.7184 48.5504C51.792 48.4031 51.8288 48.0404 51.8288 47.4621V40.5226C51.8288 39.9443 51.792 39.5816 51.7184 39.4344C51.65 39.2819 51.5265 39.161 51.3477 39.0716C51.169 38.9823 50.8352 38.9376 50.3463 38.9376V38.6458H55.3143C56.6076 38.6458 57.5539 38.7352 58.1532 38.9139C58.7525 39.0927 59.2414 39.4239 59.6199 39.9075C59.9984 40.3859 60.1877 40.9485 60.1877 41.5951C60.1877 42.3837 59.9038 43.0356 59.336 43.5508C58.9733 43.8767 58.466 44.1212 57.8141 44.2841L60.3848 47.9037C60.7213 48.3716 60.9605 48.6634 61.1025 48.779C61.318 48.942 61.5677 49.0314 61.8516 49.0472V49.3389H58.4844L55.0383 44.4655H54.3365ZM54.3365 39.2215V43.9056H54.7859C55.5167 43.9056 56.0634 43.8399 56.4262 43.7085C56.7889 43.5718 57.0728 43.33 57.2778 42.983C57.4881 42.6308 57.5933 42.1734 57.5933 41.6109C57.5933 40.796 57.4014 40.1941 57.0176 39.805C56.6391 39.416 56.0266 39.2215 55.1802 39.2215H54.3365ZM68.4362 46.295H64.6589L64.2094 47.3359C64.0622 47.6829 63.9886 47.9694 63.9886 48.1955C63.9886 48.4952 64.1096 48.716 64.3514 48.8579C64.4933 48.942 64.8429 49.0051 65.4002 49.0472V49.3389H61.8437V49.0472C62.2275 48.9893 62.5429 48.8316 62.79 48.574C63.0371 48.3111 63.342 47.7723 63.7048 46.9574L67.5294 38.425H67.6792L71.5353 47.194C71.9033 48.0246 72.2056 48.5477 72.4422 48.7633C72.6209 48.9262 72.8733 49.0209 73.1992 49.0472V49.3389H68.0262V49.0472H68.2391C68.6544 49.0472 68.9462 48.9893 69.1144 48.8737C69.2301 48.7896 69.2879 48.6686 69.2879 48.5109C69.2879 48.4163 69.2721 48.319 69.2406 48.2191C69.2301 48.1718 69.1512 47.9747 69.004 47.6277L68.4362 46.295ZM68.1681 45.7115L66.5752 42.0288L64.9349 45.7115H68.1681ZM90.4218 46.295H86.6445L86.195 47.3359C86.0478 47.6829 85.9742 47.9694 85.9742 48.1955C85.9742 48.4952 86.0951 48.716 86.3369 48.8579C86.4789 48.942 86.8285 49.0051 87.3857 49.0472V49.3389H83.8293V49.0472C84.213 48.9893 84.5285 48.8316 84.7756 48.574C85.0226 48.3111 85.3276 47.7723 85.6903 46.9574L89.5149 38.425H89.6647L93.5209 47.194C93.8889 48.0246 94.1912 48.5477 94.4277 48.7633C94.6065 48.9262 94.8588 49.0209 95.1848 49.0472V49.3389H90.0117V49.0472H90.2246C90.6399 49.0472 90.9317 48.9893 91.0999 48.8737C91.2156 48.7896 91.2734 48.6686 91.2734 48.5109C91.2734 48.4163 91.2577 48.319 91.2261 48.2191C91.2156 48.1718 91.1367 47.9747 90.9895 47.6277L90.4218 46.295ZM90.1537 45.7115L88.5607 42.0288L86.9205 45.7115H90.1537ZM95.7526 38.6458H101.273V38.9376H100.997C100.581 38.9376 100.295 38.9823 100.137 39.0716C99.9846 39.1558 99.8742 39.274 99.8058 39.4265C99.7428 39.579 99.7112 39.9601 99.7112 40.5699V45.8061C99.7112 46.7629 99.7822 47.3964 99.9241 47.7066C100.071 48.0167 100.311 48.2743 100.642 48.4794C100.973 48.6844 101.391 48.7869 101.896 48.7869C102.474 48.7869 102.965 48.6581 103.37 48.4005C103.78 48.1377 104.085 47.7775 104.285 47.3202C104.49 46.8628 104.593 46.0663 104.593 44.9308V40.5699C104.593 40.0915 104.543 39.7498 104.443 39.5448C104.343 39.3398 104.217 39.1978 104.064 39.119C103.828 38.998 103.494 38.9376 103.063 38.9376V38.6458H106.761V38.9376H106.54C106.241 38.9376 105.991 38.998 105.791 39.119C105.591 39.2399 105.447 39.4213 105.357 39.6631C105.289 39.8313 105.255 40.1336 105.255 40.5699V44.6311C105.255 45.8876 105.171 46.7945 105.003 47.3517C104.84 47.909 104.437 48.4215 103.796 48.8894C103.155 49.3573 102.279 49.5913 101.17 49.5913C100.245 49.5913 99.5298 49.4677 99.0252 49.2206C98.3365 48.8842 97.8502 48.4531 97.5663 47.9274C97.2824 47.4017 97.1405 46.6946 97.1405 45.8061V40.5699C97.1405 39.9549 97.1063 39.5737 97.0379 39.4265C96.9696 39.274 96.8513 39.1531 96.6831 39.0638C96.5148 38.9744 96.2047 38.9323 95.7526 38.9376V38.6458ZM117.233 38.6458V41.5399H116.95C116.781 40.8722 116.595 40.3938 116.39 40.1047C116.185 39.8103 115.903 39.5763 115.546 39.4028C115.346 39.3082 114.996 39.2609 114.497 39.2609H113.701V47.5094C113.701 48.0562 113.729 48.3979 113.787 48.5346C113.85 48.6713 113.969 48.7922 114.142 48.8973C114.321 48.9972 114.563 49.0472 114.868 49.0472H115.223V49.3389H109.624V49.0472H109.978C110.289 49.0472 110.538 48.992 110.728 48.8816C110.864 48.808 110.972 48.6818 111.051 48.503C111.109 48.3769 111.138 48.0457 111.138 47.5094V39.2609H110.365C109.645 39.2609 109.122 39.4134 108.796 39.7183C108.338 40.1441 108.049 40.7513 107.928 41.5399H107.629V38.6458H117.233ZM123.755 38.496C125.458 38.4329 126.841 38.9297 127.903 39.9864C128.97 41.0431 129.504 42.3653 129.504 43.9529C129.504 45.3093 129.107 46.5027 128.313 47.5331C127.261 48.9 125.776 49.5834 123.857 49.5834C121.933 49.5834 120.446 48.9315 119.394 47.6277C118.563 46.5973 118.148 45.375 118.148 43.9608C118.148 42.3732 118.687 41.051 119.765 39.9943C120.848 38.9323 122.178 38.4329 123.755 38.496ZM123.85 39.0007C122.872 39.0007 122.128 39.5001 121.618 40.499C121.203 41.3191 120.995 42.4967 120.995 44.0318C120.995 45.856 121.316 47.2045 121.957 48.0772C122.404 48.687 123.029 48.992 123.834 48.992C124.375 48.992 124.827 48.8605 125.19 48.5977C125.653 48.2612 126.013 47.725 126.271 46.989C126.528 46.2477 126.657 45.283 126.657 44.0949C126.657 42.6807 126.525 41.624 126.263 40.9248C126 40.2203 125.663 39.7235 125.253 39.4344C124.848 39.1452 124.381 39.0007 123.85 39.0007ZM137.784 45.6957L140.686 38.6458H145.039V38.9376H144.692C144.376 38.9376 144.124 38.9928 143.935 39.1032C143.803 39.1768 143.698 39.3003 143.619 39.4738C143.561 39.6 143.532 39.9286 143.532 40.4595V47.5094C143.532 48.0562 143.561 48.3979 143.619 48.5346C143.677 48.6713 143.795 48.7922 143.974 48.8973C144.153 48.9972 144.392 49.0472 144.692 49.0472H145.039V49.3389H139.456V49.0472H139.802C140.118 49.0472 140.37 48.992 140.56 48.8816C140.691 48.808 140.796 48.6818 140.875 48.503C140.933 48.3769 140.962 48.0457 140.962 47.5094V39.5842L136.861 49.3389H136.672L132.508 39.6552V47.1861C132.508 47.7118 132.521 48.0351 132.548 48.1561C132.616 48.4189 132.763 48.6345 132.989 48.8027C133.221 48.9657 133.581 49.0472 134.07 49.0472V49.3389H130.411V49.0472H130.521C130.758 49.0524 130.978 49.0156 131.183 48.9368C131.388 48.8526 131.543 48.7422 131.649 48.6056C131.754 48.4689 131.835 48.277 131.893 48.0299C131.904 47.9721 131.909 47.7039 131.909 47.2255V40.4595C131.909 39.9181 131.88 39.5816 131.822 39.4502C131.764 39.3135 131.646 39.1952 131.467 39.0953C131.288 38.9902 131.049 38.9376 130.75 38.9376H130.411V38.6458H134.779L137.784 45.6957ZM151.576 38.496C153.279 38.4329 154.662 38.9297 155.724 39.9864C156.791 41.0431 157.325 42.3653 157.325 43.9529C157.325 45.3093 156.928 46.5027 156.134 47.5331C155.083 48.9 153.597 49.5834 151.678 49.5834C149.754 49.5834 148.267 48.9315 147.215 47.6277C146.384 46.5973 145.969 45.375 145.969 43.9608C145.969 42.3732 146.508 41.051 147.586 39.9943C148.669 38.9323 149.999 38.4329 151.576 38.496ZM151.671 39.0007C150.693 39.0007 149.949 39.5001 149.439 40.499C149.024 41.3191 148.816 42.4967 148.816 44.0318C148.816 45.856 149.137 47.2045 149.778 48.0772C150.225 48.687 150.85 48.992 151.655 48.992C152.196 48.992 152.648 48.8605 153.011 48.5977C153.474 48.2612 153.834 47.725 154.092 46.989C154.349 46.2477 154.478 45.283 154.478 44.0949C154.478 42.6807 154.347 41.624 154.084 40.9248C153.821 40.2203 153.484 39.7235 153.074 39.4344C152.669 39.1452 152.202 39.0007 151.671 39.0007ZM168.097 38.6458V41.5399H167.813C167.645 40.8722 167.458 40.3938 167.253 40.1047C167.048 39.8103 166.767 39.5763 166.409 39.4028C166.209 39.3082 165.86 39.2609 165.36 39.2609H164.564V47.5094C164.564 48.0562 164.593 48.3979 164.651 48.5346C164.714 48.6713 164.832 48.7922 165.005 48.8973C165.184 48.9972 165.426 49.0472 165.731 49.0472H166.086V49.3389H160.487V49.0472H160.842C161.152 49.0472 161.402 48.992 161.591 48.8816C161.728 48.808 161.835 48.6818 161.914 48.503C161.972 48.3769 162.001 48.0457 162.001 47.5094V39.2609H161.228C160.508 39.2609 159.985 39.4134 159.659 39.7183C159.202 40.1441 158.912 40.7513 158.791 41.5399H158.492V38.6458H168.097ZM174.595 49.0472V49.3389H169.004V49.0472H169.358C169.669 49.0472 169.918 48.992 170.108 48.8816C170.244 48.808 170.349 48.6818 170.423 48.503C170.481 48.3769 170.51 48.0457 170.51 47.5094V40.4753C170.51 39.9286 170.481 39.5869 170.423 39.4502C170.365 39.3135 170.247 39.1952 170.068 39.0953C169.895 38.9902 169.658 38.9376 169.358 38.9376H169.004V38.6458H174.595V38.9376H174.24C173.93 38.9376 173.68 38.9928 173.491 39.1032C173.354 39.1768 173.246 39.303 173.167 39.4817C173.109 39.6079 173.08 39.9391 173.08 40.4753V47.5094C173.08 48.0562 173.109 48.3979 173.167 48.5346C173.23 48.6713 173.349 48.7922 173.522 48.8973C173.701 48.9972 173.94 49.0472 174.24 49.0472H174.595ZM186.471 38.6458V38.9376C186.081 39.0007 185.735 39.2083 185.43 39.5606C185.209 39.8234 184.88 40.4411 184.444 41.4137L180.761 49.5834H180.501L176.834 41.0825C176.392 40.0574 176.095 39.4554 175.943 39.2767C175.796 39.0979 175.515 38.9849 175.099 38.9376V38.6458H180.225V38.9376H180.051C179.589 38.9376 179.273 38.9954 179.105 39.1111C178.984 39.1899 178.924 39.3056 178.924 39.4581C178.924 39.5527 178.945 39.6657 178.987 39.7971C179.029 39.9233 179.171 40.2677 179.413 40.8302L181.692 46.1531L183.805 41.4137C184.057 40.8407 184.213 40.4569 184.27 40.2624C184.328 40.0679 184.357 39.9023 184.357 39.7656C184.357 39.6079 184.315 39.4686 184.231 39.3476C184.147 39.2267 184.023 39.1347 183.86 39.0716C183.634 38.9823 183.335 38.9376 182.961 38.9376V38.6458H186.471ZM191.281 46.295H187.504L187.054 47.3359C186.907 47.6829 186.833 47.9694 186.833 48.1955C186.833 48.4952 186.954 48.716 187.196 48.8579C187.338 48.942 187.688 49.0051 188.245 49.0472V49.3389H184.688V49.0472C185.072 48.9893 185.388 48.8316 185.635 48.574C185.882 48.3111 186.187 47.7723 186.549 46.9574L190.374 38.425H190.524L194.38 47.194C194.748 48.0246 195.05 48.5477 195.287 48.7633C195.466 48.9262 195.718 49.0209 196.044 49.0472V49.3389H190.871V49.0472H191.084C191.499 49.0472 191.791 48.9893 191.959 48.8737C192.075 48.7896 192.133 48.6686 192.133 48.5109C192.133 48.4163 192.117 48.319 192.085 48.2191C192.075 48.1718 191.996 47.9747 191.849 47.6277L191.281 46.295ZM191.013 45.7115L189.42 42.0288L187.78 45.7115H191.013Z" fill="url(#paint0_linear_3_37)"/>
<defs>
<linearGradient id="paint0_linear_3_37" x1="-3" y1="13.7523" x2="198.884" y2="13.7523" gradientUnits="userSpaceOnUse">
<stop stop-color="#2793F2"/>
<stop offset="0.506389" stop-color="#42B9E8"/>
<stop offset="1" stop-color="#64D3FF"/>
</linearGradient>
</defs>
</svg>
