<svg width="202" height="65" viewBox="0 0 202 65" fill="none" xmlns="http://www.w3.org/2000/svg">
<path d="M45.8762 37.3389V15.2588H50.3238V32.9229H57.7364V37.3389H45.8762ZM59.5344 37.3389V15.2588H71.016V19.6748H63.9819V24.1539H68.051V28.6015H63.9819V32.8914H71.016V37.3389H59.5344ZM73.2241 37.3389L77.2931 18.9808H77.7663L79.6589 27.8129L77.577 37.3389H73.2241ZM79.9428 34.6578L80.889 30.3048H82.0246L78.681 15.2588H83.0655L88.2701 37.3389H83.8541L83.2232 34.6578H79.9428ZM90.1943 37.3389V21.8197H90.4466L94.6418 28.5699V37.3389H90.1943ZM90.1943 18.1607V15.2588H93.8217L104.231 32.0397V37.3389H102.118L90.1943 18.1607ZM99.7834 21.6305V15.2588H104.231V28.3807H103.979L99.7834 21.6305ZM106.881 37.3389V15.2588H111.328V37.3389H106.881ZM113.031 37.3389V32.8914C113.494 32.8914 113.925 32.7021 114.325 32.3236C114.619 31.9871 114.777 31.5876 114.798 31.1249V21.4727C114.798 21.0522 114.619 20.6421 114.262 20.2426C113.925 19.9061 113.515 19.7274 113.031 19.7063V15.2588C115.366 15.2588 117.132 16.2997 118.331 18.3815C118.941 19.454 119.245 20.4844 119.245 21.4727V31.1249C119.245 33.5222 118.184 35.3097 116.06 36.4873C115.008 37.055 113.999 37.3389 113.031 37.3389ZM121.769 37.3389V15.2588H126.216V37.3389H121.769ZM127.92 28.3176V24.3747H128.33C129.676 24.3747 130.538 23.828 130.916 22.7345C131.001 22.4611 131.043 22.1772 131.043 21.8828C131.043 20.7683 130.517 20.0218 129.465 19.6432C129.129 19.5171 128.75 19.454 128.33 19.454H127.92V15.2588H128.614C131.369 15.3008 133.303 16.2786 134.418 18.1923C134.943 19.0965 135.206 20.1164 135.206 21.2519C135.185 23.4179 134.47 25.0792 133.061 26.2358C134.113 26.9087 134.786 28.1283 135.08 29.8948C135.101 30.105 135.122 30.3048 135.143 30.4941L135.679 37.3389H131.579L131.106 31.7243C130.937 30.042 130.454 29.001 129.655 28.6015C129.276 28.4333 128.814 28.3386 128.267 28.3176H127.92ZM137.572 31.188V20.8103C137.572 19.6958 138.045 18.5603 138.991 17.4037C140.253 15.8896 141.851 15.1221 143.786 15.101V19.5486C142.924 19.5696 142.356 20.0533 142.083 20.9996C142.041 21.1468 142.02 21.2519 142.02 21.315V31.188C142.02 32.0502 142.493 32.639 143.439 32.9544C143.586 32.9965 143.691 33.0175 143.754 33.0175V37.4966C142.556 37.4966 141.357 37.0656 140.159 36.2034C138.455 34.9417 137.593 33.2699 137.572 31.188ZM145.489 37.4966V33.0175C145.826 33.0175 146.204 32.8388 146.625 32.4813C147.024 32.1238 147.235 31.6927 147.256 31.188V21.315C147.256 20.9365 147.077 20.537 146.72 20.1164C146.383 19.7589 145.973 19.5696 145.489 19.5486V15.101C147.613 15.101 149.317 16.0158 150.599 17.8453C151.335 18.8967 151.703 19.8851 151.703 20.8103V31.188C151.703 33.5222 150.662 35.3097 148.581 36.5504C147.487 37.1812 146.457 37.4966 145.489 37.4966ZM7.12772 59.4971V62.4621C7.12772 63.0404 7.16189 63.4058 7.23023 63.5582C7.30383 63.7054 7.43001 63.8237 7.60875 63.9131C7.79275 64.0025 8.12658 64.0472 8.61024 64.0472V64.3389H3.17694V64.0472C3.67112 64.0472 4.00495 64.0025 4.17844 63.9131C4.35718 63.8185 4.48073 63.6976 4.54907 63.5504C4.62267 63.4031 4.65947 63.0404 4.65947 62.4621V55.5226C4.65947 54.9443 4.62267 54.5816 4.54907 54.4344C4.48073 54.2819 4.35718 54.161 4.17844 54.0716C3.99969 53.9823 3.66586 53.9376 3.17694 53.9376V53.6458H7.83744C9.37254 53.6458 10.4739 53.9192 11.1416 54.4659C11.8092 55.0127 12.1431 55.6961 12.1431 56.5162C12.1431 57.2102 11.9275 57.8042 11.4964 58.2984C11.0653 58.7926 10.4713 59.1291 9.71425 59.3078C9.20431 59.434 8.34213 59.4971 7.12772 59.4971ZM7.12772 54.2609V58.882C7.30121 58.8925 7.43263 58.8977 7.52201 58.8977C8.16338 58.8977 8.65756 58.7085 9.00453 58.33C9.35151 57.9462 9.52499 57.3548 9.52499 56.5557C9.52499 55.7618 9.35151 55.1809 9.00453 54.8129C8.65756 54.4449 8.13973 54.2609 7.45104 54.2609H7.12772ZM18.5542 64.0472V64.3389H12.9632V64.0472H13.3181C13.6282 64.0472 13.8779 63.992 14.0672 63.8816C14.2039 63.808 14.309 63.6818 14.3826 63.503C14.4405 63.3769 14.4694 63.0457 14.4694 62.5094V55.4753C14.4694 54.9286 14.4405 54.5869 14.3826 54.4502C14.3248 54.3135 14.2065 54.1952 14.0278 54.0953C13.8543 53.9902 13.6177 53.9376 13.3181 53.9376H12.9632V53.6458H18.5542V53.9376H18.1993C17.8892 53.9376 17.6395 53.9928 17.4502 54.1032C17.3135 54.1768 17.2057 54.303 17.1269 54.4817C17.0691 54.6079 17.0401 54.9391 17.0401 55.4753V62.5094C17.0401 63.0562 17.0691 63.3979 17.1269 63.5346C17.19 63.6713 17.3083 63.7922 17.4817 63.8973C17.6605 63.9972 17.8997 64.0472 18.1993 64.0472H18.5542ZM22.9545 53.6458L28.2301 60.2778V55.6803C28.2301 55.039 28.1381 54.6053 27.9541 54.3792C27.7017 54.0743 27.2785 53.9271 26.6844 53.9376V53.6458H30.2173V53.9376C29.7652 53.9954 29.4602 54.0716 29.3025 54.1663C29.1501 54.2556 29.0291 54.4055 28.9398 54.6158C28.8557 54.8208 28.8136 55.1757 28.8136 55.6803V64.5834H28.5455L21.3142 55.6803V62.4779C21.3142 63.093 21.4535 63.5083 21.7322 63.7238C22.0161 63.9394 22.3394 64.0472 22.7021 64.0472H22.9545V64.3389H19.1614V64.0472C19.7502 64.0419 20.1603 63.921 20.3916 63.6844C20.6229 63.4478 20.7386 63.0457 20.7386 62.4779V54.9312L20.5099 54.6473C20.2838 54.3634 20.084 54.1768 19.9106 54.0874C19.7371 53.998 19.4874 53.9481 19.1614 53.9376V53.6458H22.9545ZM40.7921 53.6458V56.5399H40.5082C40.34 55.8722 40.1534 55.3938 39.9483 55.1047C39.7433 54.8103 39.462 54.5763 39.1045 54.4028C38.9048 54.3082 38.5552 54.2609 38.0557 54.2609H37.2593V62.5094C37.2593 63.0562 37.2882 63.3979 37.346 63.5346C37.4091 63.6713 37.5274 63.7922 37.7009 63.8973C37.8796 63.9972 38.1214 64.0472 38.4264 64.0472H38.7812V64.3389H33.1823V64.0472H33.5372C33.8474 64.0472 34.0971 63.992 34.2863 63.8816C34.423 63.808 34.5308 63.6818 34.6097 63.503C34.6675 63.3769 34.6964 63.0457 34.6964 62.5094V54.2609H33.9236C33.2034 54.2609 32.6803 54.4134 32.3543 54.7183C31.8969 55.1441 31.6078 55.7513 31.4869 56.5399H31.1872V53.6458H40.7921ZM41.7542 53.6458H47.2742V53.9376H46.9982C46.5829 53.9376 46.2964 53.9823 46.1387 54.0716C45.9862 54.1558 45.8758 54.274 45.8075 54.4265C45.7444 54.579 45.7128 54.9601 45.7128 55.5699V60.8061C45.7128 61.7629 45.7838 62.3964 45.9257 62.7066C46.0729 63.0167 46.3121 63.2743 46.6433 63.4794C46.9745 63.6844 47.3925 63.7869 47.8972 63.7869C48.4755 63.7869 48.967 63.6581 49.3718 63.4005C49.7819 63.1377 50.0868 62.7775 50.2866 62.3202C50.4916 61.8628 50.5941 61.0663 50.5941 59.9308V55.5699C50.5941 55.0915 50.5442 54.7498 50.4443 54.5448C50.3444 54.3398 50.2182 54.1978 50.0658 54.119C49.8292 53.998 49.4954 53.9376 49.0643 53.9376V53.6458H52.7627V53.9376H52.5419C52.2422 53.9376 51.9925 53.998 51.7928 54.119C51.593 54.2399 51.4484 54.4213 51.359 54.6631C51.2907 54.8313 51.2565 55.1336 51.2565 55.5699V59.6311C51.2565 60.8876 51.1724 61.7945 51.0042 62.3517C50.8412 62.909 50.439 63.4215 49.7977 63.8894C49.1563 64.3573 48.281 64.5913 47.1717 64.5913C46.2464 64.5913 45.5314 64.4677 45.0268 64.2206C44.3381 63.8842 43.8518 63.4531 43.5679 62.9274C43.284 62.4017 43.1421 61.6946 43.1421 60.8061V55.5699C43.1421 54.9549 43.1079 54.5737 43.0395 54.4265C42.9712 54.274 42.8529 54.1531 42.6847 54.0638C42.5165 53.9744 42.2063 53.9323 41.7542 53.9376V53.6458ZM57.3365 59.4655V62.4621C57.3365 63.0404 57.3706 63.4058 57.439 63.5582C57.5126 63.7054 57.6387 63.8237 57.8175 63.9131C57.9962 64.0025 58.3301 64.0472 58.819 64.0472V64.3389H53.3463V64.0472C53.8404 64.0472 54.1743 64.0025 54.3477 63.9131C54.5265 63.8185 54.65 63.6976 54.7184 63.5504C54.792 63.4031 54.8288 63.0404 54.8288 62.4621V55.5226C54.8288 54.9443 54.792 54.5816 54.7184 54.4344C54.65 54.2819 54.5265 54.161 54.3477 54.0716C54.169 53.9823 53.8352 53.9376 53.3463 53.9376V53.6458H58.3143C59.6076 53.6458 60.5539 53.7352 61.1532 53.9139C61.7525 54.0927 62.2414 54.4239 62.6199 54.9075C62.9984 55.3859 63.1877 55.9485 63.1877 56.5951C63.1877 57.3837 62.9038 58.0356 62.336 58.5508C61.9733 58.8767 61.466 59.1212 60.8141 59.2841L63.3848 62.9037C63.7213 63.3716 63.9605 63.6634 64.1025 63.779C64.318 63.942 64.5677 64.0314 64.8516 64.0472V64.3389H61.4844L58.0383 59.4655H57.3365ZM57.3365 54.2215V58.9056H57.7859C58.5167 58.9056 59.0634 58.8399 59.4262 58.7085C59.7889 58.5718 60.0728 58.33 60.2778 57.983C60.4881 57.6308 60.5933 57.1734 60.5933 56.6109C60.5933 55.796 60.4014 55.1941 60.0176 54.805C59.6391 54.416 59.0266 54.2215 58.1802 54.2215H57.3365ZM71.4362 61.295H67.6589L67.2094 62.3359C67.0622 62.6829 66.9886 62.9694 66.9886 63.1955C66.9886 63.4952 67.1096 63.716 67.3514 63.8579C67.4933 63.942 67.8429 64.0051 68.4002 64.0472V64.3389H64.8437V64.0472C65.2275 63.9893 65.5429 63.8316 65.79 63.574C66.0371 63.3111 66.342 62.7723 66.7048 61.9574L70.5294 53.425H70.6792L74.5353 62.194C74.9033 63.0246 75.2056 63.5477 75.4422 63.7633C75.6209 63.9262 75.8733 64.0209 76.1992 64.0472V64.3389H71.0262V64.0472H71.2391C71.6544 64.0472 71.9462 63.9893 72.1144 63.8737C72.2301 63.7896 72.2879 63.6686 72.2879 63.5109C72.2879 63.4163 72.2721 63.319 72.2406 63.2191C72.2301 63.1718 72.1512 62.9747 72.004 62.6277L71.4362 61.295ZM71.1681 60.7115L69.5752 57.0288L67.9349 60.7115H71.1681ZM93.4218 61.295H89.6445L89.195 62.3359C89.0478 62.6829 88.9742 62.9694 88.9742 63.1955C88.9742 63.4952 89.0951 63.716 89.3369 63.8579C89.4789 63.942 89.8285 64.0051 90.3857 64.0472V64.3389H86.8293V64.0472C87.213 63.9893 87.5285 63.8316 87.7756 63.574C88.0226 63.3111 88.3276 62.7723 88.6903 61.9574L92.5149 53.425H92.6647L96.5209 62.194C96.8889 63.0246 97.1912 63.5477 97.4277 63.7633C97.6065 63.9262 97.8588 64.0209 98.1848 64.0472V64.3389H93.0117V64.0472H93.2246C93.6399 64.0472 93.9317 63.9893 94.0999 63.8737C94.2156 63.7896 94.2734 63.6686 94.2734 63.5109C94.2734 63.4163 94.2577 63.319 94.2261 63.2191C94.2156 63.1718 94.1367 62.9747 93.9895 62.6277L93.4218 61.295ZM93.1537 60.7115L91.5607 57.0288L89.9205 60.7115H93.1537ZM98.7526 53.6458H104.273V53.9376H103.997C103.581 53.9376 103.295 53.9823 103.137 54.0716C102.985 54.1558 102.874 54.274 102.806 54.4265C102.743 54.579 102.711 54.9601 102.711 55.5699V60.8061C102.711 61.7629 102.782 62.3964 102.924 62.7066C103.071 63.0167 103.311 63.2743 103.642 63.4794C103.973 63.6844 104.391 63.7869 104.896 63.7869C105.474 63.7869 105.965 63.6581 106.37 63.4005C106.78 63.1377 107.085 62.7775 107.285 62.3202C107.49 61.8628 107.593 61.0663 107.593 59.9308V55.5699C107.593 55.0915 107.543 54.7498 107.443 54.5448C107.343 54.3398 107.217 54.1978 107.064 54.119C106.828 53.998 106.494 53.9376 106.063 53.9376V53.6458H109.761V53.9376H109.54C109.241 53.9376 108.991 53.998 108.791 54.119C108.591 54.2399 108.447 54.4213 108.357 54.6631C108.289 54.8313 108.255 55.1336 108.255 55.5699V59.6311C108.255 60.8876 108.171 61.7945 108.003 62.3517C107.84 62.909 107.437 63.4215 106.796 63.8894C106.155 64.3573 105.279 64.5913 104.17 64.5913C103.245 64.5913 102.53 64.4677 102.025 64.2206C101.336 63.8842 100.85 63.4531 100.566 62.9274C100.282 62.4017 100.14 61.6946 100.14 60.8061V55.5699C100.14 54.9549 100.106 54.5737 100.038 54.4265C99.9696 54.274 99.8513 54.1531 99.6831 54.0638C99.5148 53.9744 99.2047 53.9323 98.7526 53.9376V53.6458ZM120.233 53.6458V56.5399H119.95C119.781 55.8722 119.595 55.3938 119.39 55.1047C119.185 54.8103 118.903 54.5763 118.546 54.4028C118.346 54.3082 117.996 54.2609 117.497 54.2609H116.701V62.5094C116.701 63.0562 116.729 63.3979 116.787 63.5346C116.85 63.6713 116.969 63.7922 117.142 63.8973C117.321 63.9972 117.563 64.0472 117.868 64.0472H118.223V64.3389H112.624V64.0472H112.978C113.289 64.0472 113.538 63.992 113.728 63.8816C113.864 63.808 113.972 63.6818 114.051 63.503C114.109 63.3769 114.138 63.0457 114.138 62.5094V54.2609H113.365C112.645 54.2609 112.122 54.4134 111.796 54.7183C111.338 55.1441 111.049 55.7513 110.928 56.5399H110.629V53.6458H120.233ZM126.755 53.496C128.458 53.4329 129.841 53.9297 130.903 54.9864C131.97 56.0431 132.504 57.3653 132.504 58.9529C132.504 60.3093 132.107 61.5027 131.313 62.5331C130.261 63.9 128.776 64.5834 126.857 64.5834C124.933 64.5834 123.446 63.9315 122.394 62.6277C121.563 61.5973 121.148 60.375 121.148 58.9608C121.148 57.3732 121.687 56.051 122.765 54.9943C123.848 53.9323 125.178 53.4329 126.755 53.496ZM126.85 54.0007C125.872 54.0007 125.128 54.5001 124.618 55.499C124.203 56.3191 123.995 57.4967 123.995 59.0318C123.995 60.856 124.316 62.2045 124.957 63.0772C125.404 63.687 126.029 63.992 126.834 63.992C127.375 63.992 127.827 63.8605 128.19 63.5977C128.653 63.2612 129.013 62.725 129.271 61.989C129.528 61.2477 129.657 60.283 129.657 59.0949C129.657 57.6807 129.525 56.624 129.263 55.9248C129 55.2203 128.663 54.7235 128.253 54.4344C127.848 54.1452 127.381 54.0007 126.85 54.0007ZM140.784 60.6957L143.686 53.6458H148.039V53.9376H147.692C147.376 53.9376 147.124 53.9928 146.935 54.1032C146.803 54.1768 146.698 54.3003 146.619 54.4738C146.561 54.6 146.532 54.9286 146.532 55.4595V62.5094C146.532 63.0562 146.561 63.3979 146.619 63.5346C146.677 63.6713 146.795 63.7922 146.974 63.8973C147.153 63.9972 147.392 64.0472 147.692 64.0472H148.039V64.3389H142.456V64.0472H142.802C143.118 64.0472 143.37 63.992 143.56 63.8816C143.691 63.808 143.796 63.6818 143.875 63.503C143.933 63.3769 143.962 63.0457 143.962 62.5094V54.5842L139.861 64.3389H139.672L135.508 54.6552V62.1861C135.508 62.7118 135.521 63.0351 135.548 63.1561C135.616 63.4189 135.763 63.6345 135.989 63.8027C136.221 63.9657 136.581 64.0472 137.07 64.0472V64.3389H133.411V64.0472H133.521C133.758 64.0524 133.978 64.0156 134.183 63.9368C134.388 63.8526 134.543 63.7422 134.649 63.6056C134.754 63.4689 134.835 63.277 134.893 63.0299C134.904 62.9721 134.909 62.7039 134.909 62.2255V55.4595C134.909 54.9181 134.88 54.5816 134.822 54.4502C134.764 54.3135 134.646 54.1952 134.467 54.0953C134.288 53.9902 134.049 53.9376 133.75 53.9376H133.411V53.6458H137.779L140.784 60.6957ZM154.576 53.496C156.279 53.4329 157.662 53.9297 158.724 54.9864C159.791 56.0431 160.325 57.3653 160.325 58.9529C160.325 60.3093 159.928 61.5027 159.134 62.5331C158.083 63.9 156.597 64.5834 154.678 64.5834C152.754 64.5834 151.267 63.9315 150.215 62.6277C149.384 61.5973 148.969 60.375 148.969 58.9608C148.969 57.3732 149.508 56.051 150.586 54.9943C151.669 53.9323 152.999 53.4329 154.576 53.496ZM154.671 54.0007C153.693 54.0007 152.949 54.5001 152.439 55.499C152.024 56.3191 151.816 57.4967 151.816 59.0318C151.816 60.856 152.137 62.2045 152.778 63.0772C153.225 63.687 153.85 63.992 154.655 63.992C155.196 63.992 155.648 63.8605 156.011 63.5977C156.474 63.2612 156.834 62.725 157.092 61.989C157.349 61.2477 157.478 60.283 157.478 59.0949C157.478 57.6807 157.347 56.624 157.084 55.9248C156.821 55.2203 156.484 54.7235 156.074 54.4344C155.669 54.1452 155.202 54.0007 154.671 54.0007ZM171.097 53.6458V56.5399H170.813C170.645 55.8722 170.458 55.3938 170.253 55.1047C170.048 54.8103 169.767 54.5763 169.409 54.4028C169.209 54.3082 168.86 54.2609 168.36 54.2609H167.564V62.5094C167.564 63.0562 167.593 63.3979 167.651 63.5346C167.714 63.6713 167.832 63.7922 168.005 63.8973C168.184 63.9972 168.426 64.0472 168.731 64.0472H169.086V64.3389H163.487V64.0472H163.842C164.152 64.0472 164.402 63.992 164.591 63.8816C164.728 63.808 164.835 63.6818 164.914 63.503C164.972 63.3769 165.001 63.0457 165.001 62.5094V54.2609H164.228C163.508 54.2609 162.985 54.4134 162.659 54.7183C162.202 55.1441 161.912 55.7513 161.791 56.5399H161.492V53.6458H171.097ZM177.595 64.0472V64.3389H172.004V64.0472H172.358C172.669 64.0472 172.918 63.992 173.108 63.8816C173.244 63.808 173.349 63.6818 173.423 63.503C173.481 63.3769 173.51 63.0457 173.51 62.5094V55.4753C173.51 54.9286 173.481 54.5869 173.423 54.4502C173.365 54.3135 173.247 54.1952 173.068 54.0953C172.895 53.9902 172.658 53.9376 172.358 53.9376H172.004V53.6458H177.595V53.9376H177.24C176.93 53.9376 176.68 53.9928 176.491 54.1032C176.354 54.1768 176.246 54.303 176.167 54.4817C176.109 54.6079 176.08 54.9391 176.08 55.4753V62.5094C176.08 63.0562 176.109 63.3979 176.167 63.5346C176.23 63.6713 176.349 63.7922 176.522 63.8973C176.701 63.9972 176.94 64.0472 177.24 64.0472H177.595ZM189.471 53.6458V53.9376C189.081 54.0007 188.735 54.2083 188.43 54.5606C188.209 54.8234 187.88 55.4411 187.444 56.4137L183.761 64.5834H183.501L179.834 56.0825C179.392 55.0574 179.095 54.4554 178.943 54.2767C178.796 54.0979 178.515 53.9849 178.099 53.9376V53.6458H183.225V53.9376H183.051C182.589 53.9376 182.273 53.9954 182.105 54.1111C181.984 54.1899 181.924 54.3056 181.924 54.4581C181.924 54.5527 181.945 54.6657 181.987 54.7971C182.029 54.9233 182.171 55.2677 182.413 55.8302L184.692 61.1531L186.805 56.4137C187.057 55.8407 187.213 55.4569 187.27 55.2624C187.328 55.0679 187.357 54.9023 187.357 54.7656C187.357 54.6079 187.315 54.4686 187.231 54.3476C187.147 54.2267 187.023 54.1347 186.86 54.0716C186.634 53.9823 186.335 53.9376 185.961 53.9376V53.6458H189.471ZM194.281 61.295H190.504L190.054 62.3359C189.907 62.6829 189.833 62.9694 189.833 63.1955C189.833 63.4952 189.954 63.716 190.196 63.8579C190.338 63.942 190.688 64.0051 191.245 64.0472V64.3389H187.688V64.0472C188.072 63.9893 188.388 63.8316 188.635 63.574C188.882 63.3111 189.187 62.7723 189.549 61.9574L193.374 53.425H193.524L197.38 62.194C197.748 63.0246 198.05 63.5477 198.287 63.7633C198.466 63.9262 198.718 64.0209 199.044 64.0472V64.3389H193.871V64.0472H194.084C194.499 64.0472 194.791 63.9893 194.959 63.8737C195.075 63.7896 195.133 63.6686 195.133 63.5109C195.133 63.4163 195.117 63.319 195.085 63.2191C195.075 63.1718 194.996 62.9747 194.849 62.6277L194.281 61.295ZM194.013 60.7115L192.42 57.0288L190.78 60.7115H194.013Z" fill="#2793F2"/>
</svg>
